<svg xmlns="http://www.w3.org/2000/svg" viewBox="0 0 450 100" width="100px">
    <g>
        <path fill="#000000" d="M 39.1 0.2 L 23.7 72 Q 27.6 72.9 31.5 75 Q 35.4 77.1 39.55 79.3 Q 43.7 81.5 48.1 83.2 Q 52.5 84.9 57.4 84.9 A 23.09 23.09 0 0 0 60.107 84.735 A 27.447 27.447 0 0 0 61.4 84.55 Q 63.5 84.2 65.7 83.3 A 39.844 39.844 0 0 1 64.931 87.901 Q 64.401 90.185 63.619 92.066 A 18.441 18.441 0 0 1 62.25 94.75 A 9.341 9.341 0 0 1 59.772 97.457 Q 57.613 99 54.6 99 Q 51.4 99 48.1 97.3 Q 44.8 95.6 41.4 93.1 A 162.917 162.917 0 0 1 36.298 89.185 A 188.496 188.496 0 0 1 34.4 87.65 Q 30.8 84.7 27 82.2 Q 23.2 79.7 19.1 78 Q 15 76.3 10.7 76.3 L 9.55 76.3 A 6.722 6.722 0 0 0 8.715 76.354 A 7.842 7.842 0 0 0 8.4 76.4 L 23.3 7.1 A 23.42 23.42 0 0 0 16.485 11.293 A 21.303 21.303 0 0 0 13 15.3 A 21.271 21.271 0 0 0 9.799 23.262 A 29.375 29.375 0 0 0 9.3 28.8 A 35.158 35.158 0 0 0 9.333 30.392 Q 9.434 32.607 9.841 33.627 A 3.266 3.266 0 0 0 9.85 33.65 Q 10.271 34.684 10.546 35.336 A 59.791 59.791 0 0 0 10.7 35.7 A 19.743 19.743 0 0 1 7.65 35.479 Q 4.765 35.027 2.85 33.65 A 6.246 6.246 0 0 1 0.647 30.668 Q 0 28.93 0 26.5 A 17.82 17.82 0 0 1 2.499 17.456 A 21.863 21.863 0 0 1 3.15 16.4 Q 6.3 11.6 11.3 7.95 A 41.831 41.831 0 0 1 21.389 2.566 A 47.183 47.183 0 0 1 22.55 2.15 A 38.625 38.625 0 0 1 33.061 0.052 A 35.872 35.872 0 0 1 35 0 Q 36.1 0 37.1 0.05 Q 38.1 0.1 39.1 0.2 Z" vector-effect="non-scaling-stroke"/>
        <path fill="#000000" d="M 75.4 24 L 89.9 24 L 82.6 58 A 15.495 15.495 0 0 0 82.277 59.849 A 12.329 12.329 0 0 0 82.2 61.2 A 6.89 6.89 0 0 0 82.269 62.21 Q 82.449 63.423 83.104 64.018 A 2.007 2.007 0 0 0 83.2 64.1 A 3.095 3.095 0 0 0 84.127 64.595 Q 85.004 64.9 86.3 64.9 A 6.007 6.007 0 0 0 90.691 63.02 A 8.576 8.576 0 0 0 91.25 62.4 A 15.296 15.296 0 0 0 93.25 59.189 A 20.947 20.947 0 0 0 94.4 56.1 L 98.6 56.1 A 50.948 50.948 0 0 1 97.02 60.155 Q 96.192 62.023 95.292 63.56 A 23.513 23.513 0 0 1 93.85 65.75 Q 91.2 69.3 88.45 71.15 A 17.875 17.875 0 0 1 86.073 72.51 Q 84.563 73.219 83.1 73.5 A 31.411 31.411 0 0 1 81.013 73.833 Q 79.656 74 78.5 74 A 12.454 12.454 0 0 1 75.588 73.678 A 8.754 8.754 0 0 1 71.85 71.8 Q 69.451 69.731 68.778 65.803 A 16.355 16.355 0 0 1 68.7 65.3 A 27.353 27.353 0 0 1 66.999 67.638 A 32.455 32.455 0 0 1 66.1 68.7 Q 64.6 70.4 62.75 71.7 Q 60.9 73 58.7 73.8 A 13.231 13.231 0 0 1 55.607 74.504 A 16.608 16.608 0 0 1 53.8 74.6 Q 51.2 74.6 48.85 73.75 A 11.368 11.368 0 0 1 44.991 71.375 A 13.299 13.299 0 0 1 44.6 71 A 11.772 11.772 0 0 1 42.637 68.358 A 15.866 15.866 0 0 1 41.6 66.05 Q 40.709 63.579 40.54 60.155 A 33.57 33.57 0 0 1 40.5 58.5 A 37.75 37.75 0 0 1 40.747 54.286 A 47.553 47.553 0 0 1 41.2 51.2 Q 41.9 47.3 43.3 43.4 Q 44.7 39.5 46.8 35.9 Q 48.9 32.3 51.8 29.55 Q 54.7 26.8 58.25 25.15 Q 61.8 23.5 66.2 23.5 A 21.583 21.583 0 0 1 67.759 23.559 A 25.991 25.991 0 0 1 68.75 23.65 A 7.838 7.838 0 0 1 70.886 24.188 A 7.288 7.288 0 0 1 71.25 24.35 A 5.725 5.725 0 0 1 73.19 25.877 A 6.612 6.612 0 0 1 73.25 25.95 A 4.988 4.988 0 0 1 73.994 27.238 Q 74.225 27.814 74.363 28.501 A 8.854 8.854 0 0 1 74.4 28.7 L 75.4 24 Z M 68.6 56.1 L 73.4 33.5 A 1.712 1.712 0 0 0 73.376 33.226 Q 73.329 32.943 73.196 32.573 A 6.311 6.311 0 0 0 73.15 32.45 A 5.104 5.104 0 0 0 72.563 31.356 A 5.802 5.802 0 0 0 72.45 31.2 A 3.785 3.785 0 0 0 71.77 30.509 A 4.837 4.837 0 0 0 71.25 30.15 A 2.914 2.914 0 0 0 70.456 29.829 Q 69.942 29.7 69.3 29.7 A 6.864 6.864 0 0 0 65.184 31.094 A 10.473 10.473 0 0 0 63.5 32.65 A 23.935 23.935 0 0 0 60.628 36.728 A 30.703 30.703 0 0 0 59.1 39.85 Q 57.3 44.1 56.3 48.85 Q 55.534 52.487 55.355 55.391 A 27.745 27.745 0 0 0 55.3 57.1 A 24.677 24.677 0 0 0 55.349 58.703 Q 55.449 60.242 55.758 61.27 A 6.08 6.08 0 0 0 55.85 61.55 A 9.715 9.715 0 0 0 56.213 62.441 Q 56.424 62.887 56.658 63.239 A 3.957 3.957 0 0 0 57.15 63.85 A 3.748 3.748 0 0 0 57.776 64.36 A 2.652 2.652 0 0 0 58.75 64.75 Q 59.6 64.9 60.3 64.9 Q 61.368 64.9 62.577 64.382 A 8.325 8.325 0 0 0 62.65 64.35 A 8.102 8.102 0 0 0 64.079 63.53 A 10.625 10.625 0 0 0 65.1 62.7 A 9.732 9.732 0 0 0 66.514 61.065 A 12.205 12.205 0 0 0 67.2 59.95 A 13.234 13.234 0 0 0 68.086 57.92 A 17.482 17.482 0 0 0 68.6 56.1 Z" vector-effect="non-scaling-stroke"/>
        <path fill="#000000" d="M 111.8 41.9 L 105 74 L 90.6 74 L 101.2 24 L 115.6 24 L 114.5 29.2 A 22.817 22.817 0 0 1 116.589 27.117 Q 118.717 25.272 120.8 24.6 Q 123.174 23.834 125.078 23.655 A 11.972 11.972 0 0 1 126.2 23.6 A 14.3 14.3 0 0 1 129.892 24.054 A 10.875 10.875 0 0 1 134.15 26.25 Q 137.3 28.9 137.3 34.9 Q 137.3 37.9 136.55 41.55 Q 135.8 45.2 134.9 48.75 Q 134 52.3 133.25 55.45 Q 132.5 58.6 132.5 60.7 A 6.91 6.91 0 0 0 132.607 61.956 Q 132.74 62.672 133.035 63.243 A 3.741 3.741 0 0 0 133.35 63.75 A 2.467 2.467 0 0 0 134.395 64.546 Q 135.218 64.897 136.481 64.9 A 9.173 9.173 0 0 0 136.5 64.9 A 6.732 6.732 0 0 0 138.101 64.717 A 5.549 5.549 0 0 0 139.35 64.25 A 7.05 7.05 0 0 0 141.49 62.521 A 8.047 8.047 0 0 0 141.55 62.45 A 12.792 12.792 0 0 0 142.558 61.036 A 16.839 16.839 0 0 0 143.3 59.7 Q 144.1 58.1 144.9 56.1 L 149.1 56.1 A 64.441 64.441 0 0 1 147.621 60.061 Q 146.83 61.972 146.001 63.554 A 28.167 28.167 0 0 1 144.6 65.95 A 30.389 30.389 0 0 1 142.786 68.441 Q 141.834 69.611 140.866 70.513 A 15.173 15.173 0 0 1 139.7 71.5 A 17.539 17.539 0 0 1 137.694 72.829 Q 136.562 73.466 135.463 73.822 A 10.007 10.007 0 0 1 134.85 74 Q 132.5 74.6 130.5 74.6 A 19.158 19.158 0 0 1 128.173 74.466 Q 126.356 74.244 124.95 73.65 Q 122.7 72.7 121.3 71.1 Q 119.9 69.5 119.3 67.45 Q 118.7 65.4 118.7 63.3 A 22.017 22.017 0 0 1 118.799 61.291 Q 118.963 59.506 119.4 57.35 Q 120.1 53.9 120.95 50.4 Q 121.8 46.9 122.5 43.55 A 39.808 39.808 0 0 0 122.927 41.171 Q 123.2 39.3 123.2 37.8 A 10.701 10.701 0 0 0 123.063 36.002 Q 122.513 32.793 119.762 32.703 A 4.913 4.913 0 0 0 119.6 32.7 A 5.156 5.156 0 0 0 116.184 34.005 A 8.273 8.273 0 0 0 114.9 35.4 A 18.438 18.438 0 0 0 112.797 39.099 A 23.818 23.818 0 0 0 111.8 41.9 Z" vector-effect="non-scaling-stroke"/>
        <path fill="#000000" d="M 182.4 6 L 197.2 4 L 185.7 58 A 15.495 15.495 0 0 0 185.377 59.849 A 12.329 12.329 0 0 0 185.3 61.2 A 6.89 6.89 0 0 0 185.369 62.21 Q 185.549 63.423 186.204 64.018 A 2.007 2.007 0 0 0 186.3 64.1 A 3.095 3.095 0 0 0 187.227 64.595 Q 188.104 64.9 189.4 64.9 A 6.007 6.007 0 0 0 193.791 63.02 A 8.576 8.576 0 0 0 194.35 62.4 A 15.296 15.296 0 0 0 196.35 59.189 A 20.947 20.947 0 0 0 197.5 56.1 L 201.7 56.1 A 50.948 50.948 0 0 1 200.12 60.155 Q 199.292 62.023 198.392 63.56 A 23.513 23.513 0 0 1 196.95 65.75 Q 194.3 69.3 191.55 71.15 A 17.875 17.875 0 0 1 189.173 72.51 Q 187.663 73.219 186.2 73.5 A 31.411 31.411 0 0 1 184.113 73.833 Q 182.756 74 181.6 74 A 12.454 12.454 0 0 1 178.688 73.678 A 8.754 8.754 0 0 1 174.95 71.8 Q 172.551 69.731 171.878 65.803 A 16.355 16.355 0 0 1 171.8 65.3 A 27.353 27.353 0 0 1 170.099 67.638 A 32.455 32.455 0 0 1 169.2 68.7 Q 167.7 70.4 165.85 71.7 Q 164 73 161.8 73.8 A 13.231 13.231 0 0 1 158.707 74.504 A 16.608 16.608 0 0 1 156.9 74.6 Q 154.3 74.6 151.95 73.75 A 11.368 11.368 0 0 1 148.091 71.375 A 13.299 13.299 0 0 1 147.7 71 A 11.772 11.772 0 0 1 145.737 68.358 A 15.866 15.866 0 0 1 144.7 66.05 Q 143.809 63.579 143.64 60.155 A 33.57 33.57 0 0 1 143.6 58.5 A 37.75 37.75 0 0 1 143.847 54.286 A 47.553 47.553 0 0 1 144.3 51.2 Q 145 47.3 146.4 43.4 Q 147.8 39.5 149.9 35.9 Q 152 32.3 154.9 29.55 Q 157.8 26.8 161.35 25.15 Q 164.9 23.5 169.3 23.5 A 21.583 21.583 0 0 1 170.859 23.559 A 25.991 25.991 0 0 1 171.85 23.65 Q 173.2 23.8 174.4 24.35 Q 175.6 24.9 176.45 25.95 A 4.311 4.311 0 0 1 177.129 27.165 Q 177.399 27.886 177.5 28.8 L 182.4 6 Z M 171.7 56.1 L 176.5 33.6 Q 176.5 32.838 175.891 31.646 A 11.787 11.787 0 0 0 175.65 31.2 Q 174.903 29.881 172.956 29.722 A 6.833 6.833 0 0 0 172.4 29.7 A 6.864 6.864 0 0 0 168.284 31.094 A 10.473 10.473 0 0 0 166.6 32.65 A 23.935 23.935 0 0 0 163.728 36.728 A 30.703 30.703 0 0 0 162.2 39.85 Q 160.4 44.1 159.4 48.85 Q 158.634 52.487 158.455 55.391 A 27.745 27.745 0 0 0 158.4 57.1 A 24.677 24.677 0 0 0 158.449 58.703 Q 158.549 60.242 158.858 61.27 A 6.08 6.08 0 0 0 158.95 61.55 A 9.715 9.715 0 0 0 159.313 62.441 Q 159.524 62.887 159.758 63.239 A 3.957 3.957 0 0 0 160.25 63.85 A 3.748 3.748 0 0 0 160.876 64.36 A 2.652 2.652 0 0 0 161.85 64.75 Q 162.7 64.9 163.4 64.9 Q 164.468 64.9 165.677 64.382 A 8.325 8.325 0 0 0 165.75 64.35 A 8.102 8.102 0 0 0 167.179 63.53 A 10.625 10.625 0 0 0 168.2 62.7 A 9.732 9.732 0 0 0 169.614 61.065 A 12.205 12.205 0 0 0 170.3 59.95 A 13.234 13.234 0 0 0 171.186 57.92 A 17.482 17.482 0 0 0 171.7 56.1 Z" vector-effect="non-scaling-stroke"/>
        <path fill="#000000" d="M 204.3 24 L 218.7 24 L 211.5 58 A 15.495 15.495 0 0 0 211.177 59.849 A 12.329 12.329 0 0 0 211.1 61.2 A 6.89 6.89 0 0 0 211.169 62.21 Q 211.349 63.423 212.004 64.018 A 2.007 2.007 0 0 0 212.1 64.1 A 3.095 3.095 0 0 0 213.027 64.595 Q 213.904 64.9 215.2 64.9 A 6.812 6.812 0 0 0 218.957 63.745 A 10.059 10.059 0 0 0 220.6 62.4 A 13.789 13.789 0 0 0 223.63 57.755 A 17.096 17.096 0 0 0 224.2 56.1 L 228.4 56.1 A 47.394 47.394 0 0 1 226.727 60.33 Q 225.25 63.569 223.5 65.85 A 32 32 0 0 1 221.209 68.535 Q 219.944 69.853 218.659 70.834 A 17.617 17.617 0 0 1 217.8 71.45 A 19.929 19.929 0 0 1 215.203 72.94 Q 213.702 73.649 212.244 73.979 A 12.358 12.358 0 0 1 212.15 74 A 31.155 31.155 0 0 1 210.193 74.366 Q 208.65 74.6 207.4 74.6 A 11.756 11.756 0 0 1 203.31 73.91 A 10.517 10.517 0 0 1 199.8 71.75 A 8.608 8.608 0 0 1 197.575 68.321 Q 196.7 65.947 196.7 62.6 Q 196.7 60.559 197.157 57.89 A 48.129 48.129 0 0 1 197.5 56.1 L 204.3 24 Z M 208.591 5.059 A 7.787 7.787 0 0 0 206.3 10.7 A 9.402 9.402 0 0 0 206.301 10.803 A 7.609 7.609 0 0 0 208.6 16.3 A 7.931 7.931 0 0 0 210.592 17.768 A 7.792 7.792 0 0 0 214.2 18.6 A 9.433 9.433 0 0 0 214.213 18.6 A 7.787 7.787 0 0 0 219.85 16.3 A 9.076 9.076 0 0 0 219.959 16.192 A 7.527 7.527 0 0 0 222.2 10.7 A 9.208 9.208 0 0 0 222.199 10.597 A 7.695 7.695 0 0 0 219.85 5.05 A 9.397 9.397 0 0 0 219.776 4.977 A 7.693 7.693 0 0 0 214.2 2.7 A 9.171 9.171 0 0 0 214.046 2.701 A 7.525 7.525 0 0 0 208.6 5.05 A 9.359 9.359 0 0 0 208.591 5.059 Z" vector-effect="non-scaling-stroke"/>
        <path fill="#000000" d="M 241.6 41.9 L 234.8 74 L 220.4 74 L 231 24 L 245.4 24 L 244.3 29.2 A 22.817 22.817 0 0 1 246.389 27.117 Q 248.517 25.272 250.6 24.6 Q 252.974 23.834 254.878 23.655 A 11.972 11.972 0 0 1 256 23.6 A 14.3 14.3 0 0 1 259.692 24.054 A 10.875 10.875 0 0 1 263.95 26.25 Q 267.1 28.9 267.1 34.9 Q 267.1 37.9 266.35 41.55 Q 265.6 45.2 264.7 48.75 Q 263.8 52.3 263.05 55.45 Q 262.3 58.6 262.3 60.7 A 6.91 6.91 0 0 0 262.407 61.956 Q 262.54 62.672 262.835 63.243 A 3.741 3.741 0 0 0 263.15 63.75 A 2.467 2.467 0 0 0 264.195 64.546 Q 265.018 64.897 266.281 64.9 A 9.173 9.173 0 0 0 266.3 64.9 A 6.732 6.732 0 0 0 267.901 64.717 A 5.549 5.549 0 0 0 269.15 64.25 A 7.05 7.05 0 0 0 271.29 62.521 A 8.047 8.047 0 0 0 271.35 62.45 A 12.792 12.792 0 0 0 272.358 61.036 A 16.839 16.839 0 0 0 273.1 59.7 Q 273.9 58.1 274.7 56.1 L 278.9 56.1 A 64.441 64.441 0 0 1 277.421 60.061 Q 276.63 61.972 275.801 63.554 A 28.167 28.167 0 0 1 274.4 65.95 A 30.389 30.389 0 0 1 272.586 68.441 Q 271.634 69.611 270.666 70.513 A 15.173 15.173 0 0 1 269.5 71.5 A 17.539 17.539 0 0 1 267.494 72.829 Q 266.362 73.466 265.263 73.822 A 10.007 10.007 0 0 1 264.65 74 Q 262.3 74.6 260.3 74.6 A 19.158 19.158 0 0 1 257.973 74.466 Q 256.156 74.244 254.75 73.65 Q 252.5 72.7 251.1 71.1 Q 249.7 69.5 249.1 67.45 Q 248.5 65.4 248.5 63.3 A 22.017 22.017 0 0 1 248.599 61.291 Q 248.763 59.506 249.2 57.35 Q 249.9 53.9 250.75 50.4 Q 251.6 46.9 252.3 43.55 A 39.808 39.808 0 0 0 252.727 41.171 Q 253 39.3 253 37.8 A 10.701 10.701 0 0 0 252.863 36.002 Q 252.313 32.793 249.562 32.703 A 4.913 4.913 0 0 0 249.4 32.7 A 5.156 5.156 0 0 0 245.984 34.005 A 8.273 8.273 0 0 0 244.7 35.4 A 18.438 18.438 0 0 0 242.597 39.099 A 23.818 23.818 0 0 0 241.6 41.9 Z" vector-effect="non-scaling-stroke"/>
        <path fill="#000000" d="M 308.3 24 L 322.7 24 L 312.8 70.4 A 20.69 20.69 0 0 0 317.222 68.277 A 16.995 16.995 0 0 0 320.35 65.7 A 15.863 15.863 0 0 0 322.361 63.033 Q 324.055 60.264 325.4 56.1 L 329.6 56.1 A 45.085 45.085 0 0 1 328.291 59.882 Q 327.555 61.721 326.719 63.25 A 23.843 23.843 0 0 1 326.05 64.4 Q 324 67.7 321.6 69.8 A 22.636 22.636 0 0 1 318.868 71.862 A 18.14 18.14 0 0 1 316.7 73.05 A 32.094 32.094 0 0 1 313.951 74.17 A 25.754 25.754 0 0 1 311.9 74.8 L 310.4 82 Q 309.561 86.12 308.169 89.017 A 17.775 17.775 0 0 1 307.25 90.7 A 23.034 23.034 0 0 1 305.38 93.31 Q 304.128 94.809 302.75 95.85 A 14.79 14.79 0 0 1 299.59 97.694 A 12.838 12.838 0 0 1 297.6 98.35 A 23.369 23.369 0 0 1 294.022 98.933 A 20.037 20.037 0 0 1 292.4 99 A 14.732 14.732 0 0 1 288.28 98.446 A 12.111 12.111 0 0 1 284.5 96.6 A 7.757 7.757 0 0 1 281.406 91.594 A 12.103 12.103 0 0 1 281.2 89.3 A 10.897 10.897 0 0 1 281.688 85.992 A 9.573 9.573 0 0 1 282.7 83.8 Q 284.2 81.4 286.55 79.6 A 24.368 24.368 0 0 1 291.261 76.789 A 27.248 27.248 0 0 1 291.8 76.55 Q 294.7 75.3 297.5 74.4 L 299.4 65.9 Q 297.2 68.6 294.15 70.6 A 11.944 11.944 0 0 1 289.81 72.319 A 16.432 16.432 0 0 1 286.7 72.6 Q 284.1 72.6 281.75 71.75 A 11.368 11.368 0 0 1 277.891 69.375 A 13.299 13.299 0 0 1 277.5 69 A 11.772 11.772 0 0 1 275.537 66.358 A 15.866 15.866 0 0 1 274.5 64.05 Q 273.609 61.579 273.44 58.155 A 33.57 33.57 0 0 1 273.4 56.5 A 33.399 33.399 0 0 1 273.66 52.433 A 41.881 41.881 0 0 1 274.1 49.65 A 44.05 44.05 0 0 1 275.986 42.878 A 48.713 48.713 0 0 1 276.2 42.3 Q 277.6 38.6 279.7 35.2 Q 281.8 31.8 284.7 29.2 Q 287.6 26.6 291.15 25.05 A 18.558 18.558 0 0 1 296.562 23.637 A 23.006 23.006 0 0 1 299.1 23.5 A 21.583 21.583 0 0 1 300.659 23.559 A 25.991 25.991 0 0 1 301.65 23.65 A 7.838 7.838 0 0 1 303.786 24.188 A 7.288 7.288 0 0 1 304.15 24.35 Q 305.3 24.9 306.15 25.9 Q 307 26.9 307.3 28.7 L 308.3 24 Z M 301.9 54.1 L 306.3 33.4 A 3.218 3.218 0 0 0 306.164 32.789 Q 305.967 32.165 305.508 31.366 A 13.066 13.066 0 0 0 305.35 31.1 Q 304.5 29.7 302.2 29.7 A 7.264 7.264 0 0 0 297.824 31.183 A 10.506 10.506 0 0 0 296.4 32.45 A 23.128 23.128 0 0 0 293.203 36.775 A 28.334 28.334 0 0 0 292 39.1 Q 290.2 43 289.2 47.4 Q 288.415 50.855 288.246 53.631 A 24.238 24.238 0 0 0 288.2 55.1 A 24.677 24.677 0 0 0 288.249 56.703 Q 288.349 58.242 288.658 59.27 A 6.08 6.08 0 0 0 288.75 59.55 A 9.715 9.715 0 0 0 289.113 60.441 Q 289.324 60.887 289.558 61.239 A 3.957 3.957 0 0 0 290.05 61.85 A 3.748 3.748 0 0 0 290.676 62.36 A 2.652 2.652 0 0 0 291.65 62.75 Q 292.5 62.9 293.2 62.9 Q 295.4 62.9 298.15 60.7 A 9.641 9.641 0 0 0 300.718 57.475 Q 301.376 56.177 301.787 54.567 A 17.988 17.988 0 0 0 301.9 54.1 Z M 295.9 82.3 L 296.5 79.4 Q 294.6 80.1 292.8 80.95 A 18.571 18.571 0 0 0 290.917 81.97 A 14.783 14.783 0 0 0 289.65 82.85 Q 288.3 83.9 287.5 85.15 Q 286.7 86.4 286.7 87.9 A 3.096 3.096 0 0 0 286.984 89.172 Q 287.172 89.592 287.484 90.013 A 5.621 5.621 0 0 0 287.55 90.1 A 2.737 2.737 0 0 0 289.2 91.111 A 4.279 4.279 0 0 0 290.1 91.2 A 2.664 2.664 0 0 0 291.438 90.816 Q 292.294 90.324 293.15 89.201 A 10.921 10.921 0 0 0 293.3 89 A 10.686 10.686 0 0 0 294.307 87.262 Q 295.17 85.428 295.805 82.717 A 37.934 37.934 0 0 0 295.9 82.3 Z" vector-effect="non-scaling-stroke"/>
        <path fill="#76c55c" d="M 332.3 24 L 346.7 24 L 336.8 70.4 A 20.69 20.69 0 0 0 341.222 68.277 A 16.995 16.995 0 0 0 344.35 65.7 A 15.863 15.863 0 0 0 346.361 63.033 Q 348.055 60.264 349.4 56.1 L 353.6 56.1 A 45.085 45.085 0 0 1 352.291 59.882 Q 351.555 61.721 350.719 63.25 A 23.843 23.843 0 0 1 350.05 64.4 Q 348 67.7 345.6 69.8 A 22.636 22.636 0 0 1 342.868 71.862 A 18.14 18.14 0 0 1 340.7 73.05 A 32.094 32.094 0 0 1 337.951 74.17 A 25.754 25.754 0 0 1 335.9 74.8 L 334.4 82 Q 333.561 86.12 332.169 89.017 A 17.775 17.775 0 0 1 331.25 90.7 A 23.034 23.034 0 0 1 329.38 93.31 Q 328.128 94.809 326.75 95.85 A 14.79 14.79 0 0 1 323.59 97.694 A 12.838 12.838 0 0 1 321.6 98.35 A 23.369 23.369 0 0 1 318.022 98.933 A 20.037 20.037 0 0 1 316.4 99 A 14.732 14.732 0 0 1 312.28 98.446 A 12.111 12.111 0 0 1 308.5 96.6 A 7.757 7.757 0 0 1 305.406 91.594 A 12.103 12.103 0 0 1 305.2 89.3 A 10.897 10.897 0 0 1 305.688 85.992 A 9.573 9.573 0 0 1 306.7 83.8 Q 308.2 81.4 310.55 79.6 A 24.368 24.368 0 0 1 315.261 76.789 A 27.248 27.248 0 0 1 315.8 76.55 Q 318.7 75.3 321.6 74.4 L 332.3 24 Z M 335.691 4.959 A 7.787 7.787 0 0 0 333.4 10.6 A 9.402 9.402 0 0 0 333.401 10.703 A 7.609 7.609 0 0 0 335.7 16.2 A 7.931 7.931 0 0 0 337.692 17.668 A 7.792 7.792 0 0 0 341.3 18.5 A 9.433 9.433 0 0 0 341.313 18.5 A 7.787 7.787 0 0 0 346.95 16.2 A 9.076 9.076 0 0 0 347.059 16.092 A 7.527 7.527 0 0 0 349.3 10.6 A 9.208 9.208 0 0 0 349.299 10.497 A 7.695 7.695 0 0 0 346.95 4.95 A 9.397 9.397 0 0 0 346.876 4.877 A 7.693 7.693 0 0 0 341.3 2.6 A 9.171 9.171 0 0 0 341.146 2.601 A 7.525 7.525 0 0 0 335.7 4.95 A 9.359 9.359 0 0 0 335.691 4.959 Z M 319.9 82.3 L 320.5 79.4 Q 318.6 80.1 316.8 80.95 A 18.571 18.571 0 0 0 314.917 81.97 A 14.783 14.783 0 0 0 313.65 82.85 Q 312.3 83.9 311.5 85.15 Q 310.7 86.4 310.7 87.9 A 3.096 3.096 0 0 0 310.984 89.172 Q 311.172 89.592 311.484 90.013 A 5.621 5.621 0 0 0 311.55 90.1 A 2.737 2.737 0 0 0 313.2 91.111 A 4.279 4.279 0 0 0 314.1 91.2 A 2.664 2.664 0 0 0 315.438 90.816 Q 316.294 90.324 317.15 89.201 A 10.921 10.921 0 0 0 317.3 89 A 10.686 10.686 0 0 0 318.307 87.262 Q 319.17 85.428 319.805 82.717 A 37.934 37.934 0 0 0 319.9 82.3 Z" vector-effect="non-scaling-stroke"/>
        <path fill="#76c55c" d="M 404.7 33.3 L 405.6 36 A 21.167 21.167 0 0 1 401.784 39.187 A 28.355 28.355 0 0 1 398.05 41.25 A 38.784 38.784 0 0 1 389.006 44.12 A 43.6 43.6 0 0 1 388 44.3 A 53.145 53.145 0 0 1 386.939 51.342 A 41.677 41.677 0 0 1 385.3 56.9 A 38.299 38.299 0 0 1 382.758 62.384 A 29.949 29.949 0 0 1 380 66.45 A 24.114 24.114 0 0 1 375.649 70.665 A 20.993 20.993 0 0 1 372.7 72.5 Q 368.6 74.6 364 74.6 A 25.217 25.217 0 0 1 360.038 74.3 A 20.745 20.745 0 0 1 357.55 73.75 A 13.181 13.181 0 0 1 354.044 72.182 A 11.871 11.871 0 0 1 352.5 71 A 12.216 12.216 0 0 1 349.992 67.784 A 15.334 15.334 0 0 1 349.2 66.1 A 15.616 15.616 0 0 1 348.349 63.058 Q 348.087 61.603 348.022 59.935 A 28.987 28.987 0 0 1 348 58.8 Q 348 56.308 348.443 53.225 A 57.57 57.57 0 0 1 348.6 52.2 A 44.594 44.594 0 0 1 349.78 46.994 A 52.54 52.54 0 0 1 350.55 44.55 Q 351.9 40.6 354 36.85 Q 356.1 33.1 359.15 30.1 Q 362.2 27.1 366.2 25.3 A 20.137 20.137 0 0 1 371.595 23.764 A 26.449 26.449 0 0 1 375.4 23.5 A 14.291 14.291 0 0 1 381.036 24.528 Q 388.051 27.517 388.2 39.2 Q 388.561 39.29 389.168 39.299 A 9.202 9.202 0 0 0 389.3 39.3 Q 390.947 39.3 392.922 38.831 A 21.873 21.873 0 0 0 393.05 38.8 Q 395.1 38.3 397.15 37.45 Q 399.2 36.6 401.15 35.5 A 51.539 51.539 0 0 0 403.342 34.194 A 41.593 41.593 0 0 0 404.7 33.3 Z M 368 65.2 A 4.645 4.645 0 0 0 369.898 64.775 Q 370.551 64.485 371.21 63.997 A 9.339 9.339 0 0 0 371.65 63.65 A 12.421 12.421 0 0 0 373.319 61.933 Q 374.042 61.039 374.712 59.93 A 22.376 22.376 0 0 0 375.05 59.35 Q 376.6 56.6 377.8 52.8 A 46.911 46.911 0 0 0 379.166 47.291 A 55.326 55.326 0 0 0 379.6 44.6 A 4.396 4.396 0 0 1 378.703 44.277 Q 378.142 43.997 377.786 43.572 A 2.462 2.462 0 0 1 377.45 43.05 A 5.54 5.54 0 0 1 376.977 41.476 A 7.217 7.217 0 0 1 376.9 40.4 Q 376.9 38.669 377.478 37.448 A 4.717 4.717 0 0 1 377.75 36.95 A 4.645 4.645 0 0 1 378.835 35.735 A 4.198 4.198 0 0 1 380 35.1 Q 379.843 32.668 379.286 31.374 A 3.74 3.74 0 0 0 378.95 30.75 A 2.73 2.73 0 0 0 377.285 29.622 Q 376.794 29.5 376.2 29.5 A 5.236 5.236 0 0 0 373.416 30.333 Q 372.616 30.826 371.845 31.612 A 12.162 12.162 0 0 0 371.1 32.45 A 26.022 26.022 0 0 0 368.655 36.065 A 34.94 34.94 0 0 0 366.9 39.65 A 54.563 54.563 0 0 0 364.035 48.502 A 59.763 59.763 0 0 0 364 48.65 Q 362.9 53.4 362.9 57.1 A 41.592 41.592 0 0 0 362.924 58.57 Q 362.978 60.072 363.147 61.133 A 12.743 12.743 0 0 0 363.15 61.15 A 9.033 9.033 0 0 0 363.363 62.139 Q 363.5 62.629 363.684 63.03 A 4.155 4.155 0 0 0 364 63.6 Q 364.6 64.5 365.6 64.85 A 5.816 5.816 0 0 0 366.607 65.098 Q 367.245 65.2 368 65.2 Z" vector-effect="non-scaling-stroke"/>
        <path fill="#76c55c" d="M 424.8 24 L 439.2 24 L 429.3 70.4 A 20.69 20.69 0 0 0 433.722 68.277 A 16.995 16.995 0 0 0 436.85 65.7 A 15.863 15.863 0 0 0 438.861 63.033 Q 440.555 60.264 441.9 56.1 L 446.1 56.1 A 45.085 45.085 0 0 1 444.791 59.882 Q 444.055 61.721 443.219 63.25 A 23.843 23.843 0 0 1 442.55 64.4 Q 440.5 67.7 438.1 69.8 A 22.636 22.636 0 0 1 435.368 71.862 A 18.14 18.14 0 0 1 433.2 73.05 A 32.094 32.094 0 0 1 430.451 74.17 A 25.754 25.754 0 0 1 428.4 74.8 L 426.9 82 Q 426.061 86.12 424.669 89.017 A 17.775 17.775 0 0 1 423.75 90.7 A 23.034 23.034 0 0 1 421.88 93.31 Q 420.628 94.809 419.25 95.85 A 14.79 14.79 0 0 1 416.09 97.694 A 12.838 12.838 0 0 1 414.1 98.35 A 23.369 23.369 0 0 1 410.522 98.933 A 20.037 20.037 0 0 1 408.9 99 A 14.732 14.732 0 0 1 404.78 98.446 A 12.111 12.111 0 0 1 401 96.6 A 7.757 7.757 0 0 1 397.906 91.594 A 12.103 12.103 0 0 1 397.7 89.3 A 10.897 10.897 0 0 1 398.188 85.992 A 9.573 9.573 0 0 1 399.2 83.8 Q 400.7 81.4 403.05 79.6 A 24.368 24.368 0 0 1 407.761 76.789 A 27.248 27.248 0 0 1 408.3 76.55 Q 411.2 75.3 414 74.4 L 415.2 69 Q 412 72.5 408.9 73.55 Q 406.018 74.526 403.568 74.595 A 13.144 13.144 0 0 1 403.2 74.6 A 11.756 11.756 0 0 1 399.11 73.91 A 10.517 10.517 0 0 1 395.6 71.75 A 8.608 8.608 0 0 1 393.375 68.321 Q 392.5 65.947 392.5 62.6 Q 392.5 60.559 392.957 57.89 A 48.129 48.129 0 0 1 393.3 56.1 L 400.1 24 L 414.5 24 L 407.3 58 Q 407 59.2 407 60.5 A 7.633 7.633 0 0 0 407.194 62.255 A 6.314 6.314 0 0 0 407.65 63.55 Q 408.3 64.9 410 64.9 A 5.842 5.842 0 0 0 414.375 62.972 A 8.174 8.174 0 0 0 414.75 62.55 A 15.188 15.188 0 0 0 416.721 59.448 A 20.234 20.234 0 0 0 417.8 56.7 L 424.8 24 Z M 412.4 82.3 L 413 79.4 Q 411.1 80.1 409.3 80.95 A 18.571 18.571 0 0 0 407.417 81.97 A 14.783 14.783 0 0 0 406.15 82.85 Q 404.8 83.9 404 85.15 Q 403.2 86.4 403.2 87.9 A 3.096 3.096 0 0 0 403.484 89.172 Q 403.672 89.592 403.984 90.013 A 5.621 5.621 0 0 0 404.05 90.1 A 2.737 2.737 0 0 0 405.7 91.111 A 4.279 4.279 0 0 0 406.6 91.2 A 2.664 2.664 0 0 0 407.938 90.816 Q 408.794 90.324 409.65 89.201 A 10.921 10.921 0 0 0 409.8 89 A 10.686 10.686 0 0 0 410.807 87.262 Q 411.67 85.428 412.305 82.717 A 37.934 37.934 0 0 0 412.4 82.3 Z" vector-effect="non-scaling-stroke"/>
    </g>
</svg>