<svg viewBox="0 0 200 200" width="230px"
    xmlns="http://www.w3.org/2000/svg">
    <defs>
        <style>
                    .cls-1 {
                        fill: #76c55c;
                    }

                    .cls-2 {
                        fill: #9fe585;
                    }

                    .cls-3 {
                        fill: #e56e98;
                    }

                    .cls-4 {
                        fill: #d70b52;
                    }

                    .cls-5 {
                        fill: #444b53;
                    }

                    .cls-6 {
                        fill: #fff;
                    }
        </style>
    </defs>
    <path class="cls-1" d="M145.91,33.27a26.9,26.9,0,0,1,4,3.89c16,19.35,2.15,57.11-30.86,84.3S46.32,155,30.37,135.65c-.61-.74-1.15-1.5-1.68-2.28A78.68,78.68,0,1,0,145.91,33.27Z" />
    <path class="cls-2" d="M139,91.2c15.29,22.54,18,45.92,13.34,60.57,20.66-24.94,28.61-74.22-8.85-105.41C152.48,57.12,150.43,73.45,139,91.2ZM43.14,143.72c-1.09-.43-2.13-.9-3.14-1.4,29.74,23.71,71,29.29,94.9,22.07-13.93-.57-35-7.37-55.43-21.08-13.65,4-26.39,4.28-36.33.41Z" />
    <path class="cls-3" d="M137.42,28.51C118,21.26,87.5,29.68,61.21,51.36,38.65,70,25.06,93.47,23.82,112.69a37.24,37.24,0,0,0,4.48,20s0,0,0,.06A13.44,13.44,0,0,0,29.1,134c.39.56.82,1.13,1.27,1.67a29,29,0,0,0,12.42,8.68c19.39,7.26,49.92-1.18,76.21-22.85,33-27.19,46.82-64.95,30.86-84.3a25.93,25.93,0,0,0-4-3.89c-.43-.33-.85-.66-1.3-1A29.87,29.87,0,0,0,137.42,28.51Z" />
    <path class="cls-4" d="M133.45,33.37c-17.77-6.64-45.72,1.07-69.8,20.92C43,71.32,30.54,92.86,29.41,110.46a34,34,0,0,0,4.1,18.3s0,0,0,.06c.22.39.45.78.7,1.15.38.53.75,1,1.16,1.52a26.25,26.25,0,0,0,11.38,7.93c17.78,6.65,45.73-1.07,69.81-20.91C146.79,93.6,159.45,59,144.82,41.3a25.37,25.37,0,0,0-3.61-3.57c-.39-.32-.8-.61-1.19-.92A29.92,29.92,0,0,0,133.45,33.37Z" />
    <path class="cls-2" d="M129.1,112q-4.72,4.72-9.85,8.95a135.28,135.28,0,0,1-16.15,11.46c19.79,19.24,36.27,29.61,39.75,27.27,3.71-2.54-1.1-22.05-13.75-47.68Z" />
    <path class="cls-5" d="M115.84,44a16.42,16.42,0,0,0-5.24,4.07,2.16,2.16,0,0,0,3.32,2.77A8.09,8.09,0,0,0,115.84,44ZM69.76,87.69a16.33,16.33,0,0,0-2.22,6.25,2.16,2.16,0,0,0,4.29.54A8.08,8.08,0,0,0,69.76,87.69ZM58,124.8a16.33,16.33,0,0,0-2.22,6.25,2.16,2.16,0,0,0,4.29.54A8,8,0,0,0,58,124.8ZM71.38,60.34a16.33,16.33,0,0,0-3.92,5.33,2.17,2.17,0,0,0,4,1.76A8,8,0,0,0,71.38,60.34Zm55-15.58a16.52,16.52,0,0,0,3.5,5.62,2.17,2.17,0,0,0,3.11-3,8.15,8.15,0,0,0-6.61-2.59Zm-5,42.93a16.33,16.33,0,0,0-2.22,6.25,2.16,2.16,0,0,0,4.29.54A8,8,0,0,0,121.32,87.69ZM90.07,116.2a16.41,16.41,0,0,0-2.22,6.25,2.16,2.16,0,0,0,4.29.55A8.07,8.07,0,0,0,90.07,116.2Zm-8.34-64a16.39,16.39,0,0,0,5.08,4.26,2.17,2.17,0,0,0,2-3.85A8.18,8.18,0,0,0,81.73,52.18Zm19,29.9a16.15,16.15,0,0,0-5.74,3.32,2.16,2.16,0,0,0,2.91,3.2A8.1,8.1,0,0,0,100.68,82.08ZM43.26,103.57a16.15,16.15,0,0,0-5.74,3.32,2.16,2.16,0,0,0,2.91,3.2A8.12,8.12,0,0,0,43.26,103.57Zm8.59-25a16.23,16.23,0,0,0-5.74,3.32A2.16,2.16,0,0,0,49,85.09,8.12,8.12,0,0,0,51.85,78.57Zm84.57-12.9A16.41,16.41,0,0,0,130.68,69a2.17,2.17,0,0,0,2.91,3.21A8.12,8.12,0,0,0,136.42,65.67Z" />
    <path class="cls-6" d="M112.77,33.84a21.49,21.49,0,0,0-12.09,4.22,2.12,2.12,0,0,0-.74,2.81,2.06,2.06,0,0,0,2.81.74,17.82,17.82,0,0,1,10-3.67C115.41,37.84,115.41,33.74,112.77,33.84ZM93.32,42.59c-2.64,0-2.64,4.1,0,4.1S96,42.59,93.32,42.59Z" />
</svg>