<svg width="200" height="200" fill="#ffb5a7" viewBox="0 0 200 200"
  xmlns="http://www.w3.org/2000/svg">
  <defs>
    <clipPath id="dddivided-clip1-14-alt">
      <rect width="60%" height="100%" x="0" y="0"></rect>
    </clipPath>
    <clipPath id="dddivided-clip2-14-alt">
      <rect width="40%" height="100%" x="60%" y="0"></rect>
    </clipPath>
  </defs>
  <path fill="#1f2d3d" clip-path="url(#dddivided-clip1-14-alt)" transform="translate(-10,-10)" d="M54.5 125.884V75.085c10.973 7.422 20.073 12.913 27.396 16.192 3.92 1.755 7.396 2.906 10.42 3.36 3.026.454 5.71.227 7.942-.907 4.548-2.31 6.35-7.856 6.401-15.726.048-7.353-1.424-17.296-4.239-29.99l43.477 25.102v50.371c-9.234-7.834-16.792-13.242-22.939-16.229-6.642-3.226-12.106-3.84-16.226-.924-3.978 2.815-6.112 8.558-7.223 16.373-1.046 7.357-1.235 16.954-.896 28.646L54.5 125.884Z"/>
  <path clip-path="url(#dddivided-clip2-14-alt)" d="M54.5 125.884V75.085c10.973 7.422 20.073 12.913 27.396 16.192 3.92 1.755 7.396 2.906 10.42 3.36 3.026.454 5.71.227 7.942-.907 4.548-2.31 6.35-7.856 6.401-15.726.048-7.353-1.424-17.296-4.239-29.99l43.477 25.102v50.371c-9.234-7.834-16.792-13.242-22.939-16.229-6.642-3.226-12.106-3.84-16.226-.924-3.978 2.815-6.112 8.558-7.223 16.373-1.046 7.357-1.235 16.954-.896 28.646L54.5 125.884Z"/>
</svg>