<svg width="200" height="200" viewBox="0 0 200 200" stroke="#ffb5a7" fill="none" stroke-width="1.5" stroke-linecap="round" stroke-linejoin="round"  xmlns="http://www.w3.org/2000/svg">
    <path fill="#fcd5ce" stroke="none" transform="translate(-10,-10)" d="M54.5 125.884V75.085c10.973 7.422 20.073 12.913 27.396 16.192 3.92 1.755 7.396 2.906 10.42 3.36 3.026.454 5.71.227 7.942-.907 4.548-2.31 6.35-7.856 6.401-15.726.048-7.353-1.424-17.296-4.239-29.99l43.477 25.102v50.371c-9.234-7.834-16.792-13.242-22.939-16.229-6.642-3.226-12.106-3.84-16.226-.924-3.978 2.815-6.112 8.558-7.223 16.373-1.046 7.357-1.235 16.954-.896 28.646L54.5 125.884Z"/><path d="M54.5 125.884V75.085c10.973 7.422 20.073 12.913 27.396 16.192 3.92 1.755 7.396 2.906 10.42 3.36 3.026.454 5.71.227 7.942-.907 4.548-2.31 6.35-7.856 6.401-15.726.048-7.353-1.424-17.296-4.239-29.99l43.477 25.102v50.371c-9.234-7.834-16.792-13.242-22.939-16.229-6.642-3.226-12.106-3.84-16.226-.924-3.978 2.815-6.112 8.558-7.223 16.373-1.046 7.357-1.235 16.954-.896 28.646L54.5 125.884Z"/>
</svg>