<svg width="200" height="200" fill="#ffb5a7" viewBox="0 0 200 200"
  xmlns="http://www.w3.org/2000/svg">
  <defs>
    <clipPath id="dddivided-clip1-15-alt">
      <rect width="60%" height="100%" x="0" y="0"></rect>
    </clipPath>
    <clipPath id="dddivided-clip2-15-alt">
      <rect width="40%" height="100%" x="60%" y="0"></rect>
    </clipPath>
  </defs>
  <path fill="#1f2d3d" clip-path="url(#dddivided-clip1-15-alt)" transform="translate(-10,-10)" d="M116.4 77.52c-14.8-39.2-54.166-24.667-72-12.5 12 6.167 28.2 20.4-3 28-39 9.5 11.5 59 95 54.5s-1.5-21-20-70Z"/>
  <path clip-path="url(#dddivided-clip2-15-alt)" d="M116.4 77.52c-14.8-39.2-54.166-24.667-72-12.5 12 6.167 28.2 20.4-3 28-39 9.5 11.5 59 95 54.5s-1.5-21-20-70Z"/>
</svg>