<svg width="200" height="200" viewBox="0 0 200 200" stroke="#ffb5a7" fill="none" stroke-width="1.5" stroke-linecap="round" stroke-linejoin="round"  xmlns="http://www.w3.org/2000/svg">
    <path fill="#fcd5ce" stroke="none" transform="translate(-10,-10)" d="M153.221 143c-62.144-23.644-80.306-25.883-87 0 6.6-30.606-6.136-46.714-21.221-56.215C57.272 89.652 75.454 90.883 83.221 57c20.832 16.409 45.084 30.198 71.429 10.49-28.998 35.62-22.326 58.75-1.429 75.51Z"/><path d="M153.221 143c-62.144-23.644-80.306-25.883-87 0 6.6-30.606-6.136-46.714-21.221-56.215C57.272 89.652 75.454 90.883 83.221 57c20.832 16.409 45.084 30.198 71.429 10.49-28.998 35.62-22.326 58.75-1.429 75.51Z"/>
</svg>