<svg width="200" height="200" fill="#ffb5a7" viewBox="0 0 200 200"
  xmlns="http://www.w3.org/2000/svg">
  <defs>
    <clipPath id="dddivided-clip1-3-alt">
      <rect width="60%" height="100%" x="0" y="0"></rect>
    </clipPath>
    <clipPath id="dddivided-clip2-3-alt">
      <rect width="40%" height="100%" x="60%" y="0"></rect>
    </clipPath>
  </defs>
  <path fill="#1f2d3d" clip-path="url(#dddivided-clip1-3-alt)" transform="translate(-10,-10)" d="M58.497 82.309c-44.5-16-40.5 62 3.5 46.5 19.868-10.664 28.199-20.615 44.18-36.775 20.028-20.553 46.205-38.081 63.561-2.978 11.824 23.913-8.098 37.16-29.954 27.551L58.497 82.309Z"/>
  <path clip-path="url(#dddivided-clip2-3-alt)" d="M58.497 82.309c-44.5-16-40.5 62 3.5 46.5 19.868-10.664 28.199-20.615 44.18-36.775 20.028-20.553 46.205-38.081 63.561-2.978 11.824 23.913-8.098 37.16-29.954 27.551L58.497 82.309Z"/>
</svg>