<svg width="200" height="200" viewBox="0 0 200 200" stroke="#ffb5a7" fill="none" stroke-width="1.5" stroke-linecap="round" stroke-linejoin="round"  xmlns="http://www.w3.org/2000/svg">
    <path fill="#fcd5ce" stroke="none" transform="translate(-10,-10)" d="M68.724 52.4c6.53-4.083 15.914-5.944 31.07-5.9l46.103 26.618v53.572c-1.132 13.513-4.599 20.739-11.276 24.309-3.416 1.827-7.818 2.783-13.489 2.985-5.602.199-12.345-.34-20.44-1.429L54.5 125.886V72.537c3.83-9.691 7.74-16.085 14.224-20.138Z"/><path d="M68.724 52.4c6.53-4.083 15.914-5.944 31.07-5.9l46.103 26.618v53.572c-1.132 13.513-4.599 20.739-11.276 24.309-3.416 1.827-7.818 2.783-13.489 2.985-5.602.199-12.345-.34-20.44-1.429L54.5 125.886V72.537c3.83-9.691 7.74-16.085 14.224-20.138Z"/>
</svg>