<svg width="200" height="200" viewBox="0 0 200 200" stroke="#ffb5a7" fill="none" stroke-width="1.5" stroke-linecap="round" stroke-linejoin="round"  xmlns="http://www.w3.org/2000/svg">
    <path fill="#fcd5ce" stroke="none" transform="translate(-10,-10)" d="M134.871 74.055c3.511-49.734-48.27 15.404-90.835 0-1.902-1.174-6.933-.792-11.848 10.123-6.144 13.644 41.249 14.524 7.899 44.012s30.717 7.482 100.927 13.644c70.211 6.162-9.653-18.045-6.143-67.78Z"/><path d="M134.871 74.055c3.511-49.734-48.27 15.404-90.835 0-1.902-1.174-6.933-.792-11.848 10.123-6.144 13.644 41.249 14.524 7.899 44.012s30.717 7.482 100.927 13.644c70.211 6.162-9.653-18.045-6.143-67.78Z"/>
</svg>