<svg width="200" height="200" viewBox="0 0 200 200" stroke="#ffb5a7" fill="none" stroke-width="1.5" stroke-linecap="round" stroke-linejoin="round"  xmlns="http://www.w3.org/2000/svg">
    <path fill="#fcd5ce" transform="translate(-10,-10)" stroke="none" d="m45 40 34 45-64 18.5 68.5 6.5-30 49.5 48.5-39 22 50.5v-52l55 23-36.5-36.5 42-51.5-69 26.5 6-52.5-29 47.5L45 40Z"/>
    <path d="m45 40 34 45-64 18.5 68.5 6.5-30 49.5 48.5-39 22 50.5v-52l55 23-36.5-36.5 42-51.5-69 26.5 6-52.5-29 47.5L45 40Z"/>
</svg>