<svg width="200" height="200" viewBox="0 0 200 200" stroke="#ffb5a7" fill="none" stroke-width="1.5" stroke-linecap="round" stroke-linejoin="round"  xmlns="http://www.w3.org/2000/svg">
    <path fill="#fcd5ce" stroke="none" transform="translate(-10,-10)" d="M136.521 64.546c11.007 4.761 19.246 12.287 21.788 24.39-4.094 3.916-9.333 8.131-14.982 12.625l-1.411 1.121c-5.487 4.36-11.272 8.957-16.603 13.712-5.787 5.162-11.103 10.564-14.964 16.131-3.495 5.039-5.866 10.307-6.238 15.725l-20.897-2.464c1.242-14.378-8.081-26.391-18.888-36.317-5.24-4.814-10.933-9.228-16.118-13.25l-1.136-.88C41.9 91.323 37.377 87.751 34.29 84.52c4.202-10.934 13.22-18.006 24.573-22.279 11.656-4.387 25.646-5.765 38.98-5.328 13.339.851 27.388 2.748 38.678 7.632Z"/><path d="M136.521 64.546c11.007 4.761 19.246 12.287 21.788 24.39-4.094 3.916-9.333 8.131-14.982 12.625l-1.411 1.121c-5.487 4.36-11.272 8.957-16.603 13.712-5.787 5.162-11.103 10.564-14.964 16.131-3.495 5.039-5.866 10.307-6.238 15.725l-20.897-2.464c1.242-14.378-8.081-26.391-18.888-36.317-5.24-4.814-10.933-9.228-16.118-13.25l-1.136-.88C41.9 91.323 37.377 87.751 34.29 84.52c4.202-10.934 13.22-18.006 24.573-22.279 11.656-4.387 25.646-5.765 38.98-5.328 13.339.851 27.388 2.748 38.678 7.632Z"/>
</svg>